<?xml version="1.0" standalone="no"?>
<!DOCTYPE svg PUBLIC "-//W3C//DTD SVG 20010904//EN"
 "http://www.w3.org/TR/2001/REC-SVG-20010904/DTD/svg10.dtd">
<svg version="1.0" xmlns="http://www.w3.org/2000/svg"
 width="100.000000pt" height="100.000000pt" viewBox="0 0 100.000000 100.000000"
 preserveAspectRatio="xMidYMid meet">
<metadata>
Created by potrace 1.11, written by Peter Selinger 2001-2013
</metadata>
<g transform="translate(0.000000,100.000000) scale(0.100000,-0.100000)"
fill="#000000" stroke="none">
<path d="M0 960 c0 -44 17 -53 37 -20 7 11 30 28 50 39 l38 20 -62 1 -63 0 0
-40z"/>
<path d="M2 567 c-3 -115 3 -126 53 -103 34 16 54 23 78 25 13 2 7 30 -11 48
-10 10 -31 35 -46 55 -15 20 -37 43 -50 51 l-23 15 -1 -91z"/>
<path d="M674 635 c-8 -21 4 -35 31 -35 29 0 41 16 25 35 -16 19 -49 19 -56 0z"/>
<path d="M370 631 c0 -5 5 -13 10 -16 6 -3 10 -2 10 4 0 5 -4 13 -10 16 -5 3
-10 2 -10 -4z"/>
<path d="M522 598 c-18 -18 -15 -38 6 -38 21 0 42 18 42 37 0 16 -32 17 -48 1z"/>
<path d="M603 587 c-3 -5 0 -13 7 -17 9 -5 11 -19 6 -40 -5 -25 -3 -30 7 -22
8 6 20 6 37 0 34 -14 80 -20 80 -10 0 5 -18 15 -41 22 -42 14 -63 38 -53 64 4
11 0 14 -16 13 -12 -1 -24 -5 -27 -10z"/>
<path d="M226 572 c-9 -8 33 -34 44 -27 6 4 8 10 5 14 -6 11 -42 20 -49 13z"/>
<path d="M232 490 c-14 -23 -15 -30 -4 -30 5 0 14 11 20 25 14 30 2 34 -16 5z"/>
<path d="M972 498 c-18 -18 -14 -27 8 -21 21 6 26 18 12 27 -5 3 -14 0 -20 -6z"/>
<path d="M10 360 c-8 -5 -12 -12 -9 -15 4 -3 12 1 19 10 14 17 11 19 -10 5z"/>
<path d="M773 335 c-3 -9 -3 -18 0 -22 10 -10 37 6 37 22 0 20 -29 20 -37 0z"/>
<path d="M37 267 l-37 -21 0 -107 0 -107 36 0 c19 0 38 -3 41 -6 4 -3 -12 -6
-35 -6 -23 0 -42 -4 -42 -10 0 -6 85 -10 235 -10 l234 0 -1 35 c-1 32 -3 34
-18 20 -15 -14 -19 -14 -31 1 -13 16 -14 14 -19 -12 -4 -24 -10 -30 -39 -32
-18 -2 -38 1 -44 7 -6 6 -58 12 -122 12 -60 1 -98 4 -82 6 15 2 27 7 27 11 0
4 -18 34 -40 67 -39 58 -46 82 -15 52 8 -9 15 -20 15 -26 0 -6 7 -11 16 -11 8
0 13 -4 10 -9 -3 -5 1 -11 9 -15 8 -3 15 -12 15 -20 0 -19 23 -31 72 -40 40
-7 57 6 38 29 -15 18 -6 45 14 45 20 0 25 22 10 38 -11 10 -18 10 -35 1 -24
-13 -28 -10 -61 51 -13 23 -23 30 -37 25 -13 -4 -28 4 -48 24 l-30 29 -36 -21z"/>
<path d="M545 245 l-50 -23 40 5 c22 3 56 14 75 24 32 17 33 18 10 18 -14 0
-47 -11 -75 -24z"/>
<path d="M971 241 c-11 -7 -11 -15 -1 -45 18 -54 30 -53 30 3 0 52 -4 58 -29
42z"/>
<path d="M932 115 c2 -19 9 -31 21 -33 23 -5 22 10 -3 39 l-20 24 2 -30z"/>
<path d="M795 53 c-121 -3 -133 -5 -160 -28 l-30 -24 198 -1 197 0 0 30 c0 28
-2 30 -37 28 -21 -1 -97 -4 -168 -5z"/>
</g>
</svg>
